<?xml version="1.0" encoding="UTF-8" standalone="no"?>
<svg
   xmlns:dc="http://purl.org/dc/elements/1.1/"
   xmlns:cc="http://creativecommons.org/ns#"
   xmlns:rdf="http://www.w3.org/1999/02/22-rdf-syntax-ns#"
   xmlns:svg="http://www.w3.org/2000/svg"
   xmlns="http://www.w3.org/2000/svg"
   xml:space="preserve"
   width="600"
   height="280"
   version="1.1"
   style="clip-rule:evenodd;fill-rule:evenodd;image-rendering:optimizeQuality;shape-rendering:geometricPrecision;text-rendering:geometricPrecision"
   viewBox="0 0 6250 2916.6667"
   id="svg45"><metadata
   id="metadata49"><rdf:RDF><cc:Work
       rdf:about=""><dc:format>image/svg+xml</dc:format><dc:type
         rdf:resource="http://purl.org/dc/dcmitype/StillImage" /><dc:title></dc:title></cc:Work></rdf:RDF></metadata>
 <defs
   id="defs4">
  <style
   type="text/css"
   id="style2">
   <![CDATA[
    .fil0 {fill:black}
    .fil1 {fill:#050101}
    .fil2 {fill:#787677}
    .fil3 {fill:#99999A}
    .fil4 {fill:#C9CACA}
    .fil5 {fill:#F4F5F6}
    .fil6 {fill:black;fill-rule:nonzero}
   ]]>
  </style>
 
  
  
 
   
   
  
    
    
    
    
    
    
    
    
    
    
    
    
    
    
    
    
   
</defs>
 
<path
   style="font-style:normal;font-variant:normal;font-weight:bold;font-stretch:normal;font-size:medium;line-height:1.25;font-family:Times;-inkscape-font-specification:'Times Bold';letter-spacing:0px;word-spacing:0px;clip-rule:evenodd;fill:#000000;fill-opacity:1;fill-rule:evenodd;stroke:none;stroke-width:60.19721222;image-rendering:optimizeQuality;shape-rendering:geometricPrecision;text-rendering:geometricPrecision"
   d="m 2029.1505,571.5851 c -5.4867,39.9747 -17.6391,69.3627 -36.4508,88.1744 -15.9729,15.973 -34.7295,24.8372 -56.2405,26.6578 l 1.1662,2.4436 c -3.3111,-0.7586 -6.5737,-1.3638 -9.867,-2.0734 -7.8668,-0.046 -20.0416,-2.3905 -36.1917,-6.8866 -96.2014,-15.85 -184.0086,-10.653 -260.2467,10.3669 73.9055,17.0593 142.2616,51.1138 205.0058,102.3549 94.0582,76.8141 158.3367,187.3339 192.8247,331.5564 h 45.8551 v -552.594 z m -928.0987,337.6655 c -200.53001,18.4595 -386.21094,92.9722 -472.17616,198.7301 -43.88172,104.522 -65.86704,213.3837 -65.86704,326.5951 0,144.2225 35.67411,280.2131 107.00147,407.9754 72.11131,127.7624 174.0132,225.7286 305.69458,293.9208 132.46525,68.192 283.74215,102.2993 453.83055,102.2993 129.33,0 242.2,-20.7703 338.6096,-62.3126 97.1934,-42.3262 190.4591,-110.121 279.8143,-203.3954 V 1835.498 c -92.4905,107.3831 -180.6731,183.0122 -264.5416,226.906 -83.0848,43.8938 -174.7835,65.8485 -275.1122,65.8485 -122.2757,0 -221.8273,-29.789 -298.6414,-89.3592 -76.8142,-60.354 -133.2399,-148.9191 -169.2955,-265.7079 -36.0556,-117.5727 -54.09314,-247.6968 -54.09314,-390.3516 0,-145.0063 24.68744,-276.6788 74.06794,-395.0353 11.537,-27.7831 25.1402,-53.9476 40.7086,-78.5479 z"
   id="path1081" /><path
   id="path1083"
   style="font-style:normal;font-variant:normal;font-weight:bold;font-stretch:normal;font-size:medium;line-height:1.25;font-family:Times;-inkscape-font-specification:'Times Bold';letter-spacing:0px;word-spacing:0px;clip-rule:evenodd;fill:#000000;fill-opacity:1;fill-rule:evenodd;stroke:none;stroke-width:60.1972084;image-rendering:optimizeQuality;shape-rendering:geometricPrecision;text-rendering:geometricPrecision"
   d="m 2895.6587,2040.0713 q -201.0493,177.5347 -360.9481,177.5347 -94.0582,0 -156.3716,-61.1378 -62.3137,-62.3135 -62.3137,-155.1959 0,-125.8028 108.167,-225.7396 108.1668,-101.1125 471.4664,-268.0657 v -110.5183 q 0,-124.627 -14.1088,-156.3717 -12.9328,-32.9203 -50.5562,-56.4349 -37.6233,-24.6902 -84.6524,-24.6902 -76.4222,0 -125.8026,34.096 -30.5689,21.1631 -30.5689,49.3806 0,24.6902 32.9203,61.1378 44.6776,50.5562 44.6776,97.5853 0,57.6107 -43.5019,98.761 -42.3262,39.9748 -111.6941,39.9748 -74.0707,0 -124.627,-44.6777 -49.3805,-44.6776 -49.3805,-104.6396 0,-84.6524 67.0164,-161.0746 67.0164,-77.598 186.9406,-118.7484 119.9241,-41.1505 249.254,-41.1505 156.3717,0 246.9027,67.0165 91.7067,65.8407 118.7483,143.4386 16.4603,49.3805 16.4603,226.9153 v 426.7888 q 0,75.2465 5.8786,95.2339 5.8786,18.8117 17.6359,28.2175 11.7573,9.4057 27.0418,9.4057 30.5688,0 62.3135,-43.5018 l 35.2717,28.2174 q -58.7863,87.0039 -122.2755,126.9785 -62.3136,38.799 -142.2629,38.799 -94.0582,0 -146.9659,-43.5019 -52.9078,-44.6776 -64.665,-134.0328 z m 0,-85.8281 v -368.0025 q -142.2629,83.4766 -211.6308,178.7105 -45.8534,63.4892 -45.8534,128.1542 0,54.0835 38.799,95.2338 29.3932,31.7447 82.3009,31.7447 58.7863,0 136.3843,-65.8407 z" /><path
   id="path1085"
   style="font-style:normal;font-variant:normal;font-weight:bold;font-stretch:normal;font-size:medium;line-height:1.25;font-family:Times;-inkscape-font-specification:'Times Bold';letter-spacing:0px;word-spacing:0px;clip-rule:evenodd;fill:#000000;fill-opacity:1;fill-rule:evenodd;stroke:none;stroke-width:60.1972084;image-rendering:optimizeQuality;shape-rendering:geometricPrecision;text-rendering:geometricPrecision"
   d="m 4542.852,571.5885 12.9331,531.4285 h -48.2048 Q 4473.4841,903.1434 4339.4514,782.0436 4206.5942,659.768 4051.3982,659.768 q -119.9241,0 -190.4677,64.665 -69.3679,63.4892 -69.3679,146.9658 0,52.9077 24.6903,94.0581 34.0961,55.2592 109.3426,109.3426 55.2591,38.799 255.1328,137.5601 279.8229,137.56 377.4082,259.8356 96.4096,122.2755 96.4096,279.8229 0,199.8737 -156.3717,344.488 -155.1958,143.4387 -395.0442,143.4387 -75.2466,0 -142.263,-15.2844 -67.0164,-15.2844 -168.1289,-57.6107 -56.4348,-23.5145 -92.8824,-23.5145 -30.5688,0 -64.665,23.5145 -34.096,23.5146 -55.2591,71.7193 h -43.502 v -601.972 h 43.502 q 51.7319,253.957 198.6978,387.9898 148.1417,132.8571 318.622,132.8571 131.6814,0 209.2793,-71.7193 78.7738,-71.7194 78.7738,-166.9533 0,-56.4348 -30.569,-109.3424 -29.3931,-52.9079 -90.5309,-99.9369 -61.1378,-48.2049 -216.3338,-124.6271 -217.5094,-106.9911 -312.7432,-182.2376 -95.2339,-75.2465 -146.9659,-168.1289 -50.5563,-92.8824 -50.5563,-204.5765 0,-190.4677 139.9115,-324.5006 139.9115,-134.0328 352.718,-134.0328 77.598,0 150.4932,18.8116 55.2591,14.1087 134.0327,52.9077 79.9495,37.6233 111.6941,37.6233 30.5689,0 48.2048,-18.8117 17.6359,-18.8116 32.9204,-90.5309 z" /><path
   style="font-style:normal;font-variant:normal;font-weight:bold;font-stretch:normal;font-size:medium;line-height:1.25;font-family:Times;-inkscape-font-specification:'Times Bold';letter-spacing:0px;word-spacing:0px;clip-rule:evenodd;fill:#000000;fill-opacity:1;fill-rule:evenodd;stroke:none;stroke-width:60.19721603;image-rendering:optimizeQuality;shape-rendering:geometricPrecision;text-rendering:geometricPrecision"
   d="m 4800.3352,608.0378 v 43.504 h 52.9083 c 51.7319,0 92.4889,10.968 122.274,32.9149 21.1631,14.8926 35.6657,36.0637 43.504,63.4973 3.9191,16.4602 5.8869,60.7334 5.8869,132.8446 v 1048.7611 c 0,79.9494 -4.3181,129.3238 -12.9402,148.1357 -10.9733,26.6497 -26.642,45.4521 -47.0213,56.4257 -28.2175,16.4601 -65.4581,24.6954 -111.7034,24.6954 h -52.9083 v 43.504 H 6178.2828 L 6250,1695.5822 h -43.486 c -39.1911,141.0872 -103.87,246.1227 -194.0103,315.0985 -89.3523,68.976 -208.4917,103.4656 -357.4164,103.4656 h -95.2278 c -45.4615,0 -78.384,-6.2675 -98.7633,-18.8086 -20.3794,-12.5411 -34.4811,-28.6108 -42.3193,-48.2061 -7.0544,-19.5955 -10.5888,-73.288 -10.5891,-161.076 v -449.1278 c 76.0307,0 134.0415,10.1847 174.0159,30.564 39.9746,19.5954 74.8472,58.4029 104.6316,116.4054 30.5697,58.0026 50.5561,132.4655 59.9619,223.3885 h 44.6707 v -834.777 h -44.6707 c -12.5414,123.8433 -41.5469,217.5096 -87.0083,280.9988 -45.4614,63.4893 -118.7399,95.2275 -219.8524,95.2275 h -31.7487 V 699.7479 h 164.5937 c 120.7081,0 203.0239,7.0509 246.9175,21.1596 75.2467,23.5146 133.2386,60.3543 173.9976,110.5187 41.5424,50.1643 73.6816,132.8626 96.4114,248.0839 h 44.6698 V 608.0378 Z m 363.4528,91.6361 h 89.9514 v 1416.194 h -89.9514 z m 930.7631,0.111 v 207.8566 c -11.4431,-80.1061 -88.7326,-174.3679 -184.8446,-207.801 z m -375.5219,573.8641 v 231.3302 c -16.2894,-77.68 -102.1449,-105.8657 -200.3597,-115.6651 98.5269,-11.7984 171.3706,-21.7042 200.3597,-115.6651 z m 431.0598,672.0534 -25.7143,170.1655 -163.8529,-0.056 c 69.7927,-34.9249 148.5689,-91.1445 189.5672,-170.1099 z"
   id="path1087" /><g
   id="g1198"
   transform="matrix(0.90991951,0,0,0.90991951,-3532.5095,349.462)"><path
     id="path9-9"
     d="m 4631.5292,282.69069 c 0,0 277.1283,-295.85484 577.5228,-345.752582 300.3945,-49.897748 509.1184,69.6662912 509.1184,69.6662912 C 5578.3594,-44.222801 5482.2493,-68.145776 5205.9569,-19.18878 4929.6645,29.768217 4743.4211,206.06497 4631.5292,282.69069 Z m 1357.2122,63.22488 -73.0181,-151.99132 -73.9829,-151.087187 590.0748,-348.695703 -1436.2927,-78.1995 -1113.3006,831.50567 526.3828,51.36358 135.9994,314.86138 c 129.477,-169.3441 490.3578,-268.77152 803.5181,-216.64821 82.3008,-191.92199 324.9073,-323.44213 640.6192,-251.10871 z"
     style="clip-rule:evenodd;fill:#050101;fill-rule:evenodd;stroke:none;stroke-width:19.125;stroke-miterlimit:4;stroke-dasharray:none;stroke-opacity:1;image-rendering:optimizeQuality;shape-rendering:geometricPrecision;text-rendering:geometricPrecision" /><path
     id="rect1018"
     d="m 5190.5449,-377.43363 223.614,10.38179 V 814.92263 l -27.9518,-138.1259 -27.9517,138.1259 -27.9518,-138.1259 -27.9517,138.1259 -27.9518,-138.1259 -27.9517,138.1259 -27.9518,-138.1259 -27.9517,138.1259 z"
     style="fill:#787677;fill-opacity:1;stroke:none;stroke-width:8.53839779;stroke-miterlimit:4;stroke-dasharray:8.53839756, 8.53839756;stroke-dashoffset:0;stroke-opacity:1" /></g><g
   id="text1038"
   style="font-style:normal;font-weight:normal;font-size:457.07766724px;line-height:1.25;font-family:sans-serif;letter-spacing:0px;word-spacing:0px;fill:#000000;fill-opacity:1;stroke:none;stroke-width:11.42694187"
   aria-label="Great Education Just in CaSE"><path
     id="path4535"
     style="letter-spacing:-30.73817062px;stroke-width:11.42694187"
     d="m 809.39627,2777.624 v -89.4962 h -73.65021 v -37.0482 h 118.2867 v 143.0599 q -26.11235,18.5241 -57.58108,28.121 -31.46872,9.3737 -67.17792,9.3737 -78.11386,0 -122.30398,-45.5293 -43.96694,-45.7524 -43.96694,-127.214 0,-81.6847 43.96694,-127.214 44.19012,-45.7524 122.30398,-45.7524 32.58464,0 61.82154,8.0346 29.46009,8.0346 54.23334,23.6573 v 47.9843 q -24.99643,-21.2024 -53.11742,-31.9151 -28.12099,-10.7128 -59.14335,-10.7128 -61.152,0 -91.95118,34.1469 -30.57599,34.147 -30.57599,101.7712 0,67.4011 30.57599,101.5481 30.79918,34.1469 91.95118,34.1469 23.88052,0 42.62784,-4.0173 18.74733,-4.2405 33.70056,-12.9446 z" /><path
     id="path4537"
     style="letter-spacing:-30.73817062px;stroke-width:11.42694187"
     d="m 1048.932,2613.5849 q -6.9186,-4.0173 -15.1764,-5.8027 -8.0345,-2.0087 -17.8546,-2.0087 -34.81642,0 -53.56374,22.7646 -18.52415,22.5415 -18.52415,64.9461 v 131.6777 h -41.28875 v -249.9644 h 41.28875 v 38.8338 q 12.94458,-22.7646 33.70055,-33.7006 20.75597,-11.1591 50.43924,-11.1591 4.2405,0 9.3737,0.6695 5.1332,0.4464 11.3823,1.5623 z" /><path
     id="path4539"
     style="letter-spacing:-30.73817062px;stroke-width:11.42694187"
     d="m 1265.7032,2689.9133 v 20.0864 h -188.8124 q 2.6782,42.4047 25.4428,64.7229 22.9878,22.0951 63.8302,22.0951 23.6574,0 45.7524,-5.8028 22.3183,-5.8027 44.1902,-17.4082 v 38.8338 q -22.0951,9.3736 -45.3061,14.2836 -23.211,4.9101 -47.0915,4.9101 -59.8129,0 -94.8525,-34.8165 -34.8165,-34.8165 -34.8165,-94.183 0,-61.3752 33.031,-97.3076 33.2542,-36.1555 89.4962,-36.1555 50.4392,0 79.6761,32.5846 29.4601,32.3615 29.4601,88.1571 z m -41.0656,-12.0519 q -0.4463,-33.7005 -18.9705,-53.7869 -18.3009,-20.0864 -48.6538,-20.0864 -34.3701,0 -55.126,19.4168 -20.5328,19.4169 -23.6574,54.6797 z" /><path
     id="path4541"
     style="letter-spacing:-30.73817062px;stroke-width:11.42694187"
     d="m 1415.966,2699.5101 q -49.7697,0 -68.9634,11.3823 -19.1937,11.3824 -19.1937,38.8338 0,21.8719 14.2837,34.8165 14.5069,12.7214 39.2801,12.7214 34.1469,0 54.6797,-24.1037 20.756,-24.3269 20.756,-64.4998 v -9.1505 z m 81.908,-16.9618 v 142.6136 h -41.0656 v -37.9411 q -14.0605,22.7647 -35.0396,33.7006 -20.9792,10.7128 -51.332,10.7128 -38.3874,0 -61.152,-21.4256 -22.5414,-21.6487 -22.5414,-57.8042 0,-42.1815 28.121,-63.607 28.3441,-21.4255 84.3629,-21.4255 h 57.5811 v -4.0173 q 0,-28.3442 -18.7473,-43.7438 -18.5242,-15.6227 -52.2247,-15.6227 -21.4255,0 -41.7351,5.1331 -20.3096,5.1332 -39.057,15.3996 v -37.941 q 22.5415,-8.7041 43.7438,-12.9446 21.2023,-4.4636 41.2887,-4.4636 54.2334,0 81.0153,28.121 26.7819,28.121 26.7819,85.2557 z" /><path
     id="path4543"
     style="letter-spacing:-30.73817062px;stroke-width:11.42694187"
     d="m 1592.5643,2504.2255 v 70.972 h 84.5862 v 31.9151 h -84.5862 v 135.6949 q 0,30.576 8.2578,39.2802 8.4809,8.7041 34.1469,8.7041 h 42.1815 v 34.3701 h -42.1815 q -47.5379,0 -65.6156,-17.6314 -18.0778,-17.8546 -18.0778,-64.723 v -135.6949 h -30.1297 v -31.9151 h 30.1297 v -70.972 z" /><path
     id="path4545"
     style="letter-spacing:-30.73817062px;stroke-width:11.42694187"
     d="m 1817.2079,2491.9505 h 210.6842 v 37.941 h -165.6014 v 98.6466 h 158.6828 v 37.941 h -158.6828 v 120.7417 h 169.6187 v 37.9411 h -214.7015 z" /><path
     id="path4547"
     style="letter-spacing:-30.73817062px;stroke-width:11.42694187"
     d="M 2238.4142,2613.1385 V 2477.89 h 41.0656 v 347.2719 h -41.0656 v -37.4947 q -12.9445,22.3183 -32.8078,33.2542 -19.64,10.7128 -47.3147,10.7128 -45.306,0 -73.8734,-36.1556 -28.3441,-36.1556 -28.3441,-95.0757 0,-58.9202 28.3441,-95.0758 28.5674,-36.1555 73.8734,-36.1555 27.6747,0 47.3147,10.9359 19.8633,10.7128 32.8078,33.031 z m -139.9354,87.2644 q 0,45.306 18.5242,71.1952 18.7473,25.666 51.3319,25.666 32.5847,0 51.332,-25.666 18.7473,-25.8892 18.7473,-71.1952 0,-45.3061 -18.7473,-70.972 -18.7473,-25.8892 -51.332,-25.8892 -32.5846,0 -51.3319,25.8892 -18.5242,25.6659 -18.5242,70.972 z" /><path
     id="path4549"
     style="letter-spacing:-30.73817062px;stroke-width:11.42694187"
     d="m 2329.0873,2726.5152 v -151.3177 h 41.0656 v 149.7554 q 0,35.4861 13.8373,53.3406 13.8373,17.6315 41.512,17.6315 33.2542,0 52.4478,-21.2024 19.4169,-21.2023 19.4169,-57.8042 v -141.7209 h 41.0656 v 249.9644 h -41.0656 v -38.3874 q -14.9532,22.7646 -34.8164,33.9237 -19.6401,10.936 -45.7524,10.936 -43.0743,0 -65.3925,-26.7819 -22.3183,-26.7819 -22.3183,-78.3371 z m 103.3335,-157.3436 z" /><path
     id="path4551"
     style="letter-spacing:-30.73817062px;stroke-width:11.42694187"
     d="m 2772.6118,2584.7944 v 38.3873 q -17.4082,-9.5968 -35.0396,-14.2836 -17.4083,-4.91 -35.2629,-4.91 -39.9496,0 -62.0447,25.4428 -22.0951,25.2196 -22.0951,70.972 0,45.7524 22.0951,71.1952 22.0951,25.2196 62.0447,25.2196 17.8546,0 35.2629,-4.6868 17.6314,-4.9101 35.0396,-14.5069 v 37.941 q -17.185,8.0346 -35.7092,12.0519 -18.301,4.0173 -39.0569,4.0173 -56.4652,0 -89.7194,-35.4861 -33.2542,-35.486 -33.2542,-95.7452 0,-61.152 33.4774,-96.1917 33.7006,-35.0396 92.1744,-35.0396 18.9705,0 37.0483,4.0173 18.0777,3.7941 35.0396,11.6055 z" /><path
     id="path4553"
     style="letter-spacing:-30.73817062px;stroke-width:11.42694187"
     d="m 2927.3383,2699.5101 q -49.7697,0 -68.9633,11.3823 -19.1937,11.3824 -19.1937,38.8338 0,21.8719 14.2836,34.8165 14.5069,12.7214 39.2801,12.7214 34.147,0 54.6797,-24.1037 20.756,-24.3269 20.756,-64.4998 v -9.1505 z m 81.908,-16.9618 v 142.6136 h -41.0656 v -37.9411 q -14.0605,22.7647 -35.0396,33.7006 -20.9792,10.7128 -51.332,10.7128 -38.3874,0 -61.152,-21.4256 -22.5414,-21.6487 -22.5414,-57.8042 0,-42.1815 28.121,-63.607 28.3441,-21.4255 84.3629,-21.4255 h 57.5811 v -4.0173 q 0,-28.3442 -18.7473,-43.7438 -18.5242,-15.6227 -52.2247,-15.6227 -21.4255,0 -41.7351,5.1331 -20.3096,5.1332 -39.057,15.3996 v -37.941 q 22.5415,-8.7041 43.7438,-12.9446 21.2023,-4.4636 41.2888,-4.4636 54.2333,0 81.0152,28.121 26.7819,28.121 26.7819,85.2557 z" /><path
     id="path4555"
     style="letter-spacing:-30.73817062px;stroke-width:11.42694187"
     d="m 3103.9365,2504.2255 v 70.972 h 84.5862 v 31.9151 h -84.5862 v 135.6949 q 0,30.576 8.2578,39.2802 8.4809,8.7041 34.1469,8.7041 h 42.1815 v 34.3701 h -42.1815 q -47.5379,0 -65.6157,-17.6314 -18.0777,-17.8546 -18.0777,-64.723 v -135.6949 h -30.1297 v -31.9151 h 30.1297 v -70.972 z" /><path
     id="path4557"
     style="letter-spacing:-30.73817062px;stroke-width:11.42694187"
     d="m 3212.018,2575.1975 h 41.0656 v 249.9644 h -41.0656 z m 0,-97.3075 h 41.0656 v 52.0015 h -41.0656 z" /><path
     id="path4559"
     style="letter-spacing:-30.73817062px;stroke-width:11.42694187"
     d="m 3404.9085,2603.9881 q -33.031,0 -52.2247,25.8891 -19.1937,25.666 -19.1937,70.5257 0,44.8596 18.9705,70.7488 19.1937,25.666 52.4479,25.666 32.8078,0 52.0015,-25.8892 19.1937,-25.8891 19.1937,-70.5256 0,-44.4133 -19.1937,-70.3025 -19.1937,-26.1123 -52.0015,-26.1123 z m 0,-34.8165 q 53.5638,0 84.1398,34.8165 30.576,34.8164 30.576,96.4148 0,61.3751 -30.576,96.4148 -30.576,34.8165 -84.1398,34.8165 -53.787,0 -84.363,-34.8165 -30.3528,-35.0397 -30.3528,-96.4148 0,-61.5984 30.3528,-96.4148 30.576,-34.8165 84.363,-34.8165 z" /><path
     id="path4561"
     style="letter-spacing:-30.73817062px;stroke-width:11.42694187"
     d="m 3764.5164,2674.2905 v 150.8714 h -41.0655 v -149.5323 q 0,-35.486 -13.8373,-53.1174 -13.8374,-17.6314 -41.512,-17.6314 -33.2542,0 -52.4479,21.2023 -19.1936,21.2023 -19.1936,57.8043 v 141.2745 h -41.2888 v -249.9644 h 41.2888 v 38.8338 q 14.73,-22.5415 34.5932,-33.7006 20.0865,-11.1591 46.1988,-11.1591 43.0742,0 65.1693,26.7819 22.095,26.5587 22.095,78.337 z" /><path
     id="path4563"
     style="letter-spacing:-30.73817062px;stroke-width:11.42694187"
     d="m 3932.6948,2491.9505 h 45.0829 v 310.0004 q 0,60.2593 -22.9878,87.4875 -22.7646,27.2283 -73.427,27.2283 h -17.1851 v -37.941 h 14.0605 q 29.9064,0 42.1815,-16.7387 12.275,-16.7387 12.275,-60.0361 z" /><path
     id="path4565"
     style="letter-spacing:-30.73817062px;stroke-width:11.42694187"
     d="m 4030.7331,2726.5152 v -151.3177 h 41.0656 v 149.7554 q 0,35.4861 13.8373,53.3406 13.8373,17.6315 41.5119,17.6315 33.2542,0 52.4479,-21.2024 19.4169,-21.2023 19.4169,-57.8042 v -141.7209 h 41.0655 v 249.9644 h -41.0655 v -38.3874 q -14.9533,22.7646 -34.8165,33.9237 -19.64,10.936 -45.7524,10.936 -43.0742,0 -65.3925,-26.7819 -22.3182,-26.7819 -22.3182,-78.3371 z m 103.3335,-157.3436 z" /><path
     id="path4567"
     style="letter-spacing:-30.73817062px;stroke-width:11.42694187"
     d="m 4453.7248,2582.5625 v 38.8338 q -17.4083,-8.9273 -36.1556,-13.391 -18.7473,-4.4636 -38.8337,-4.4636 -30.576,0 -45.9756,9.3737 -15.1764,9.3736 -15.1764,28.1209 0,14.2837 10.9359,22.5415 10.9359,8.0345 43.967,15.3996 l 14.0604,3.1245 q 43.7438,9.3737 62.0448,26.5587 18.5241,16.9619 18.5241,47.5379 0,34.8164 -27.6746,55.1261 -27.4515,20.3096 -75.6589,20.3096 -20.0864,0 -41.9583,-4.0173 -21.6487,-3.7941 -45.7524,-11.6055 v -42.4047 q 22.7646,11.8287 44.8597,17.8546 22.0951,5.8028 43.7438,5.8028 29.0137,0 44.6365,-9.8201 15.6227,-10.0432 15.6227,-28.121 0,-16.7386 -11.3823,-25.6659 -11.1591,-8.9273 -49.3233,-17.1851 l -14.2837,-3.3477 q -38.1642,-8.0346 -55.126,-24.5501 -16.9619,-16.7387 -16.9619,-45.7524 0,-35.2628 24.9964,-54.4565 24.9965,-19.1937 70.972,-19.1937 22.7647,0 42.8511,3.3477 20.0864,3.3478 37.0483,10.0432 z" /><path
     id="path4569"
     style="letter-spacing:-30.73817062px;stroke-width:11.42694187"
     d="m 4542.6123,2504.2255 v 70.972 h 84.5862 v 31.9151 h -84.5862 v 135.6949 q 0,30.576 8.2578,39.2802 8.4809,8.7041 34.1469,8.7041 h 42.1815 v 34.3701 h -42.1815 q -47.5379,0 -65.6157,-17.6314 -18.0777,-17.8546 -18.0777,-64.723 v -135.6949 h -30.1297 v -31.9151 h 30.1297 v -70.972 z" /><path
     id="path4571"
     style="letter-spacing:-30.73817062px;stroke-width:11.42694187"
     d="m 4765.4706,2575.1975 h 41.0656 v 249.9644 h -41.0656 z m 0,-97.3075 h 41.0656 v 52.0015 h -41.0656 z" /><path
     id="path4573"
     style="letter-spacing:-30.73817062px;stroke-width:11.42694187"
     d="m 5069.2828,2674.2905 v 150.8714 h -41.0656 v -149.5323 q 0,-35.486 -13.8373,-53.1174 -13.8373,-17.6314 -41.5119,-17.6314 -33.2542,0 -52.4479,21.2023 -19.1937,21.2023 -19.1937,57.8043 v 141.2745 h -41.2887 v -249.9644 h 41.2887 v 38.8338 q 14.7301,-22.5415 34.5933,-33.7006 20.0864,-11.1591 46.1988,-11.1591 43.0742,0 65.1692,26.7819 22.0951,26.5587 22.0951,78.337 z" /><path
     id="path4575"
     style="letter-spacing:-30.73817062px;stroke-width:11.42694187"
     d="m 5486.9792,2517.6164 v 47.5379 q -22.7647,-21.2023 -48.6538,-31.6919 -25.666,-10.4896 -54.6797,-10.4896 -57.1347,0 -87.4875,35.0397 -30.3529,34.8164 -30.3529,100.8784 0,65.8389 30.3529,100.8785 30.3528,34.8165 87.4875,34.8165 29.0137,0 54.6797,-10.4896 25.8891,-10.4896 48.6538,-31.6919 v 47.0915 q -23.6574,16.0691 -50.2161,24.1037 -26.3355,8.0346 -55.7956,8.0346 -75.6589,0 -119.1794,-46.1988 -43.5206,-46.422 -43.5206,-126.5445 0,-80.3456 43.5206,-126.5444 43.5205,-46.422 119.1794,-46.422 29.9064,0 56.242,8.0346 26.5587,7.8114 49.7697,23.6573 z" /><path
     id="path4577"
     style="letter-spacing:-30.73817062px;stroke-width:11.42694187"
     d="m 5638.1345,2699.5101 q -49.7697,0 -68.9634,11.3823 -19.1937,11.3824 -19.1937,38.8338 0,21.8719 14.2837,34.8165 14.5068,12.7214 39.2801,12.7214 34.1469,0 54.6797,-24.1037 20.756,-24.3269 20.756,-64.4998 v -9.1505 z m 81.9079,-16.9618 v 142.6136 h -41.0655 v -37.9411 q -14.0605,22.7647 -35.0397,33.7006 -20.9791,10.7128 -51.3319,10.7128 -38.3874,0 -61.152,-21.4256 -22.5415,-21.6487 -22.5415,-57.8042 0,-42.1815 28.121,-63.607 28.3442,-21.4255 84.363,-21.4255 h 57.5811 v -4.0173 q 0,-28.3442 -18.7474,-43.7438 -18.5241,-15.6227 -52.2247,-15.6227 -21.4255,0 -41.7351,5.1331 -20.3096,5.1332 -39.0569,15.3996 v -37.941 q 22.5414,-8.7041 43.7438,-12.9446 21.2023,-4.4636 41.2887,-4.4636 54.2333,0 81.0152,28.121 26.7819,28.121 26.7819,85.2557 z" /><path
     id="path4579"
     style="letter-spacing:-30.73817062px;stroke-width:11.42694187"
     d="m 5975.6475,2502.8864 v 43.9669 q -25.666,-12.275 -48.4306,-18.3009 -22.7646,-6.0259 -43.967,-6.0259 -36.8251,0 -56.9115,14.2836 -19.8632,14.2837 -19.8632,40.6192 0,22.0951 13.1677,33.4774 13.391,11.1591 50.4393,18.0778 l 27.2282,5.5795 q 50.4393,9.5969 74.3198,33.9238 24.1037,24.1037 24.1037,64.7229 0,48.4306 -32.5847,73.427 -32.3614,24.9965 -95.0757,24.9965 -23.6573,0 -50.4392,-5.3564 -26.5587,-5.3564 -55.1261,-15.846 v -46.4219 q 27.4515,15.3996 53.787,23.2109 26.3355,7.8114 51.7783,7.8114 38.6106,0 59.5897,-15.1764 20.9792,-15.1764 20.9792,-43.2974 0,-24.55 -15.1764,-38.3874 -14.9532,-13.8373 -49.3233,-20.7559 l -27.4515,-5.3564 q -50.4392,-10.0432 -72.9807,-31.4687 -22.5414,-21.4255 -22.5414,-59.5897 0,-44.1902 31.0224,-69.633 31.2455,-25.4428 85.9252,-25.4428 23.4342,0 47.7611,4.2405 24.3269,4.2405 49.7697,12.7214 z" /><path
     id="path4581"
     style="letter-spacing:-30.73817062px;stroke-width:11.42694187"
     d="m 6035.2981,2491.9505 h 210.6842 v 37.941 h -165.6014 v 98.6466 h 158.6828 v 37.941 h -158.6828 v 120.7417 h 169.6187 v 37.9411 h -214.7015 z" /></g></svg>